<?xml version="1.0" encoding="UTF-8"?>
<svg version="1.1" xmlns="http://www.w3.org/2000/svg" width="3000" height="3000">
<path d="M0 0 C96.03 0 192.06 0 291 0 C293.36821893 4.73643786 295.56013818 9.15190908 297.49169922 14.01806641 C297.94178345 15.14661545 298.39186768 16.27516449 298.85559082 17.43791199 C299.33379272 18.64691666 299.81199463 19.85592133 300.3046875 21.1015625 C300.82105536 22.39913354 301.33778841 23.6965593 301.8548584 24.99385071 C302.95669315 27.7597462 304.05660731 30.52639388 305.15496826 33.29367065 C308.08394368 40.6720022 311.02649185 48.0449263 313.96875 55.41796875 C314.26641644 56.16417795 314.56408287 56.91038715 314.8707695 57.67920876 C320.6353783 72.1274505 326.48716356 86.53900675 332.375 100.9375 C339.16766946 117.5583686 345.90825401 134.19821132 352.5625 150.875 C360.60757092 171.03635216 368.69860927 191.17877327 376.8125 211.3125 C377.42888753 212.84210057 378.04527139 214.37170263 378.66165161 215.90130615 C381.17842112 222.14681032 383.69530397 228.39226879 386.2124176 234.63763428 C392.66362066 250.64449153 399.10859201 266.65385592 405.55307007 282.66342163 C408.8060066 290.74444767 412.05921742 298.82536328 415.3125 306.90625 C415.63343817 307.70343634 415.95437634 308.50062267 416.2850399 309.32196617 C423.35463474 326.88213998 430.42711675 344.4411505 437.5 362 C444.89721674 380.36402648 452.29378535 398.72831318 459.6875 417.09375 C460.16946052 418.29090134 460.16946052 418.29090134 460.66115761 419.51223755 C463.91277642 427.58904618 467.16425842 435.66590988 470.41556644 443.74284363 C476.87574241 459.79118636 483.33719971 475.83900965 489.80376053 491.88478088 C490.76924699 494.28054464 491.73465875 496.67633849 492.70004272 499.07214355 C493.01610662 499.85652046 493.33217052 500.64089737 493.65781212 501.44904327 C494.29029316 503.01867811 494.92277125 504.58831413 495.55524635 506.15795135 C497.28756716 510.45697844 499.02026108 514.75585467 500.75363159 519.05445862 C510.54841597 543.35145739 520.27059933 567.67649834 530 592 C530.495 298.96 530.495 298.96 531 0 C600.96 0 670.92 0 743 0 C743 276.87 743 553.74 743 839 C635.75 839 528.5 839 418 839 C404.2723431 805.82482915 404.2723431 805.82482915 397.89086914 789.78979492 C397.41457062 788.5938974 396.93827209 787.39799988 396.44754028 786.16586304 C396.20177876 785.54875332 395.95601723 784.9316436 395.70280838 784.29583359 C393.15764799 777.90778181 390.60582306 771.52238596 388.0546875 765.13671875 C387.74632776 764.36473711 387.43796803 763.59275547 387.12026405 762.79738045 C381.5202607 748.77971503 375.89269155 734.7732087 370.2578125 720.76953125 C369.38895301 718.61006313 368.52009725 716.45059351 367.65124512 714.29112244 C366.31723251 710.97560985 364.98320898 707.66010166 363.64916992 704.34459972 C350.77464403 672.34704768 337.91555915 640.34368268 325.1640625 608.296875 C324.67942724 607.07897593 324.19479198 605.86107685 323.69547081 604.60627174 C319.00808139 592.8254865 314.32422261 581.04330601 309.64708042 569.2584486 C301.94910703 549.8644113 294.24698763 530.47673595 286.2525959 511.20270729 C277.43582022 489.92935878 269.00390457 468.49952352 260.50445557 447.09802246 C244.72704999 407.37562381 228.87365762 367.68414404 213 328 C212.67 496.63 212.34 665.26 212 839 C142.04 839 72.08 839 0 839 C0 562.13 0 285.26 0 0 Z " fill="#FEB427" transform="translate(1842,541)"/>
<path d="M0 0 C0.9885498 -0.00067474 1.97709961 -0.00134949 2.99560547 -0.00204468 C60.66310417 0.060067 117.53883098 12.30313401 169.625 37.25 C170.55908691 37.69166504 171.49317383 38.13333008 172.45556641 38.58837891 C203.40155375 53.29618028 232.50068348 72.06169572 258.625 94.25 C259.6834245 95.1343172 260.74202863 96.01841943 261.80078125 96.90234375 C281.44450896 113.40894304 299.23063004 131.53066746 315.625 151.25 C316.10646484 151.8265332 316.58792969 152.40306641 317.08398438 152.99707031 C334.01633521 173.37692916 348.8210214 195.73281176 361.42382812 219.03271484 C362.26524507 220.5859158 363.11348815 222.13542922 363.96679688 223.68212891 C381.62450877 255.76999425 406.09562319 303.65611897 405.625 341.25 C381.01719398 344.38072626 356.4092077 347.51003216 331.80100441 350.63763428 C320.37571346 352.08977596 308.95048259 353.54238727 297.52539062 354.99609375 C287.57051404 356.26273168 277.61552723 357.52849911 267.66040552 358.79320908 C262.38635145 359.46326212 257.11235467 360.13375923 251.83848953 360.80529785 C246.87949201 361.43672939 241.92034849 362.06700118 236.96108818 362.69636536 C235.13645758 362.92813463 233.31188176 363.16033562 231.48736382 363.39299011 C229.00528002 363.70943033 226.52300769 364.02434735 224.04067993 364.33886719 C223.31111639 364.43224995 222.58155284 364.52563271 221.82988131 364.62184525 C216.85324242 365.25 216.85324242 365.25 214.625 365.25 C214.39425781 364.61199463 214.16351562 363.97398926 213.92578125 363.31665039 C202.73075936 332.51651234 188.86715625 304.8699473 166.09765625 280.8984375 C164.32705014 279.00195892 162.66620456 277.11595556 161.02734375 275.11328125 C159.13287745 272.85532385 157.35877948 270.95613579 155.125 269.0625 C154.43792969 268.47855469 153.75085937 267.89460938 153.04296875 267.29296875 C152.24503906 266.61878906 151.44710937 265.94460938 150.625 265.25 C149.16513672 263.97576172 149.16513672 263.97576172 147.67578125 262.67578125 C140.34497607 256.30659596 132.7827217 250.54586362 124.625 245.25 C124.06651367 244.88696777 123.50802734 244.52393555 122.93261719 244.14990234 C100.20158408 229.53525344 75.2497471 219.78300356 48.625 215.25 C47.33464844 215.02441406 46.04429687 214.79882812 44.71484375 214.56640625 C-7.88776615 206.9313928 -59.0114846 221.66930943 -101.42578125 252.75292969 C-118.03477475 265.24243417 -133.36390053 280.26058392 -145.375 297.25 C-145.79539551 297.84200195 -146.21579102 298.43400391 -146.64892578 299.04394531 C-170.07897143 332.37887236 -185.32296011 370.58825084 -189.375 411.25 C-189.48585938 412.31089844 -189.59671875 413.37179687 -189.7109375 414.46484375 C-195.19208869 476.75738637 -176.86825396 539.41322698 -136.76806641 587.60742188 C-102.75689772 627.71032109 -55.59021532 655.41544808 -2.75244141 660.21508789 C44.16628332 664.03177211 91.1702194 653.20690618 129.625 625.25 C131.05779297 624.22519531 131.05779297 624.22519531 132.51953125 623.1796875 C150.48769436 610.03914357 166.3418403 595.11889365 179.625 577.25 C180.0487793 576.69231934 180.47255859 576.13463867 180.90917969 575.56005859 C196.08962501 555.56644364 206.34646521 532.81795373 214.625 509.25 C225.56801616 509.85676811 236.39242845 510.95025486 247.26879883 512.27539062 C248.98199069 512.48113907 250.69522336 512.68654795 252.40849304 512.89164734 C257.01134927 513.44372504 261.61359208 514.00076232 266.21570802 514.55897331 C271.04574851 515.14416916 275.87626732 515.72539287 280.70671082 516.30725098 C288.80066984 517.2828755 296.89422366 518.26180795 304.98754883 519.24267578 C314.3490816 520.37719537 323.71127793 521.50610966 333.07383329 522.63215685 C342.09618656 523.71744206 351.11802869 524.80692186 360.13965416 525.89823914 C363.97557429 526.36216593 367.8116746 526.8245602 371.64792824 527.28572083 C376.15214458 527.82734961 380.65590527 528.37261916 385.15933418 528.92075539 C386.81444522 529.1215992 388.46971253 529.32115988 390.12514114 529.51936913 C392.37710016 529.78921211 394.62845654 530.06361568 396.87971497 530.3392334 C398.14152493 530.49187401 399.4033349 530.64451462 400.70338154 530.8017807 C403.625 531.25 403.625 531.25 405.625 532.25 C405.01072451 540.09253095 403.23039961 547.41447527 401.1875 555 C401.01304352 555.64972778 400.83858704 556.29945557 400.65884399 556.96887207 C389.35527128 598.83018732 372.08143403 639.69606474 348.625 676.25 C348.14498535 677.00104004 347.6649707 677.75208008 347.17041016 678.52587891 C336.94654079 694.41944159 325.86613819 709.84491711 313.625 724.25 C312.71736424 725.33196106 311.80981745 726.41399676 310.90234375 727.49609375 C297.55995349 743.31648394 283.42832509 758.84788685 267.625 772.25 C266.66851563 773.095625 265.71203125 773.94125 264.7265625 774.8125 C245.02243259 792.15922426 223.34072236 807.13230712 200.625 820.25 C199.97724609 820.62801758 199.32949219 821.00603516 198.66210938 821.39550781 C157.28810625 845.44039948 112.69200643 861.2035433 65.625 869.25 C64.64756836 869.41725586 63.67013672 869.58451172 62.66308594 869.75683594 C-32.80876817 885.4383662 -133.18172468 863.08385313 -214.375 811.25 C-215.41527344 810.58613281 -216.45554687 809.92226562 -217.52734375 809.23828125 C-235.27522234 797.62547181 -252.36424833 784.82707336 -267.96875 770.4453125 C-269.3137298 769.21823677 -270.66700473 767.99960073 -272.04907227 766.81445312 C-277.5626262 762.08395121 -282.7478168 757.06336609 -287.88354492 751.92675781 C-289.30168284 750.51080053 -290.72796665 749.10301711 -292.15429688 747.6953125 C-297.53628029 742.32454934 -302.51470127 736.80661328 -307.25708008 730.86450195 C-309.26381832 728.38725009 -311.34423244 726.01451097 -313.484375 723.65234375 C-317.45926989 719.22432656 -321.07469472 714.58490127 -324.625 709.8125 C-325.27122314 708.94560547 -325.91744629 708.07871094 -326.58325195 707.18554688 C-372.38197118 645.25607107 -401.0074149 573.49312351 -411.375 497.25 C-411.54016113 496.07566406 -411.70532227 494.90132812 -411.87548828 493.69140625 C-417.03225498 455.42361117 -416.87882775 414.46775581 -411.375 376.25 C-411.22581116 375.19827606 -411.22581116 375.19827606 -411.0736084 374.12530518 C-403.80365226 323.11934891 -388.34411209 275.32465846 -365.375 229.25 C-364.98344727 228.46286621 -364.59189453 227.67573242 -364.18847656 226.86474609 C-354.5764288 207.71405793 -343.14583032 189.44465907 -330.375 172.25 C-329.84519531 171.53618164 -329.31539062 170.82236328 -328.76953125 170.08691406 C-318.93241932 156.90261381 -308.47125432 144.39412993 -297.375 132.25 C-296.46726883 131.24886026 -295.55972519 130.24755047 -294.65234375 129.24609375 C-287.59556695 121.47694173 -280.45575715 113.92567911 -272.484375 107.08203125 C-270.19870454 105.09688413 -267.97798622 103.0496017 -265.75 101 C-202.61517993 44.18824234 -119.67396217 8.94305666 -35.375 1.25 C-34.36115234 1.1557373 -33.34730469 1.06147461 -32.30273438 0.96435547 C-21.54409211 0.07627499 -10.78983868 0.00666123 0 0 Z " fill="#1E35DD" transform="translate(2172.375,1469.75)"/>
<path d="M0 0 C195.36 0 390.72 0 592 0 C593.19866022 68.32363258 593 136.66585366 593 205 C471.56 205 350.12 205 225 205 C225 244.6 225 284.2 225 325 C286.05 325 347.1 325 410 325 C410 387.37 410 449.74 410 514 C348.95 514 287.9 514 225 514 C225 553.6 225 593.2 225 634 C346.11 634 467.22 634 592 634 C592 701.65 592 769.3 592 839 C396.64 839 201.28 839 0 839 C0 562.13 0 285.26 0 0 Z " fill="#1E35DD" transform="translate(1103,1488)"/>
<path d="M0 0 C139.5590625 -0.0309375 139.5590625 -0.0309375 281.9375 -0.0625 C311.37316162 -0.071604 340.80882324 -0.08070801 371.13647461 -0.09008789 C406.93273926 -0.09460449 406.93273926 -0.09460449 423.66188049 -0.09544373 C436.18414432 -0.09644155 448.7064028 -0.10076528 461.22866512 -0.10667343 C473.98187619 -0.11260962 486.73508385 -0.11484053 499.48829624 -0.11344495 C506.41718071 -0.11278755 513.3460559 -0.11370197 520.27493846 -0.11921513 C526.52750628 -0.12403934 532.78005662 -0.12435115 539.0326252 -0.12090111 C541.30524324 -0.12047338 543.57786233 -0.12177297 545.85047829 -0.12488258 C548.92325915 -0.12884341 551.99597548 -0.12676496 555.06875515 -0.12304783 C555.97101778 -0.12567485 556.87328041 -0.12830188 557.80288434 -0.13100851 C563.88585473 -0.11414527 563.88585473 -0.11414527 565 1 C565.09780762 3.630234 565.12994603 6.2342109 565.12025452 8.86488342 C565.12111053 9.69676178 565.12196655 10.52864014 565.12284851 11.38572693 C565.12451399 14.20386851 565.11896348 17.02195168 565.11352539 19.84008789 C565.11321931 21.88272061 565.11335212 23.92535344 565.11389065 25.96798611 C565.11411723 31.45838993 565.1083042 36.94877213 565.10128021 42.43917084 C565.09560252 47.5834307 565.09531803 52.72768519 565.09460449 57.87194824 C565.0893486 72.93546838 565.07538757 87.99898446 565.0625 103.0625 C565.041875 136.701875 565.02125 170.34125 565 205 C452.8 205 340.6 205 225 205 C225 244.6 225 284.2 225 325 C234.08265381 324.99476318 243.16530762 324.98952637 252.52319336 324.98413086 C281.54999973 324.96809715 310.57680611 324.95696453 339.60361576 324.94893467 C344.10870934 324.94768389 348.61380292 324.94638958 353.11889648 324.94506836 C354.01581861 324.94480605 354.91274073 324.94454374 355.83684231 324.94427348 C370.37938683 324.93991648 384.92192742 324.93202877 399.4644696 324.9228472 C414.37498781 324.91351149 429.28550395 324.90794457 444.19602495 324.90591151 C453.40426008 324.90453611 462.61248409 324.90018461 471.82071579 324.89208353 C478.12629044 324.88681709 484.4318593 324.88519547 490.73743599 324.88649862 C494.38102194 324.88714216 498.0245884 324.88612271 501.66817093 324.88079453 C505.6089831 324.87507343 509.54976944 324.87699887 513.49058533 324.87974548 C514.65495697 324.87683264 515.81932862 324.8739198 517.01898426 324.87091869 C518.06599398 324.87290974 519.1130037 324.87490079 520.19174099 324.87695217 C521.10269006 324.87657245 522.01363913 324.87619273 522.95219272 324.8758015 C525 325 525 325 526 326 C526.09768197 328.4284885 526.12996745 330.82851946 526.12025452 333.25746155 C526.12111053 334.02416168 526.12196655 334.79086182 526.12284851 335.58079529 C526.12451375 338.1776659 526.11896387 340.7744731 526.11352539 343.37133789 C526.1132193 345.25377367 526.11335213 347.13620956 526.11389065 349.01864529 C526.11411721 354.07810097 526.10830451 359.1375332 526.10128021 364.19698334 C526.0956022 368.93759743 526.09531802 373.67820569 526.09460449 378.41882324 C526.08934876 392.30005196 526.07538773 406.18127627 526.0625 420.0625 C526.041875 451.061875 526.02125 482.06125 526 514 C426.67 514 327.34 514 225 514 C225 621.25 225 728.5 225 839 C150.75 839 76.5 839 0 839 C0 562.13 0 285.26 0 0 Z " fill="#FEB427" transform="translate(435,541)"/>
<path d="M0 0 C73.92 0 147.84 0 224 0 C224.03738281 24.26273438 224.07476563 48.52546875 224.11328125 73.5234375 C224.14355565 88.89063042 224.17456036 104.25781665 224.20898438 119.625 C224.22703297 127.69921826 224.2448967 135.7734369 224.26245117 143.84765625 C224.2657627 145.36549347 224.2657627 145.36549347 224.26914114 146.91399407 C224.30445563 163.22374906 224.32934529 179.533504 224.35034702 195.84328298 C224.3721538 212.59696422 224.40525031 229.35059609 224.44870156 246.10423529 C224.47513444 256.43178598 224.49289131 266.75927523 224.49934604 277.08685805 C224.50462562 284.18078969 224.52092816 291.27464421 224.54566566 298.36853443 C224.55959315 302.45373942 224.56888458 306.53880661 224.56500816 310.62403679 C224.53745208 347.3246314 229.94894078 380.76003697 256.49536133 408.16894531 C260 411.8081631 260 411.8081631 260 414 C260.56203125 414.2371875 261.1240625 414.474375 261.703125 414.71875 C264.51583929 416.28774709 266.45064442 418.24348955 268.75 420.5 C290.01251043 440.06828649 318.65001254 449.45749885 347.25 449.3125 C348.42876709 449.30686035 349.60753418 449.3012207 350.82202148 449.29541016 C378.76597529 448.90881481 404.72718119 439.18329235 426 421 C426.51401367 420.56429688 427.02802734 420.12859375 427.55761719 419.6796875 C451.24423825 399.38958254 466.30539665 371.981701 470 341 C470.26792085 336.16157428 470.2857454 331.33605284 470.2784729 326.49101257 C470.28348827 325.07323273 470.28936765 323.65545572 470.29602563 322.23768264 C470.31168969 318.37910253 470.31524873 314.52059548 470.31667423 310.66198742 C470.32039228 306.48696872 470.33555952 302.31198901 470.34928894 298.13699341 C470.37149054 290.91589968 470.38654637 283.69481996 470.39665604 276.47369957 C470.41128313 266.03336203 470.43683111 255.59307331 470.46498732 245.15276454 C470.51038231 228.21131237 470.54702717 211.26985314 470.578125 194.32836914 C470.60834048 177.8778357 470.64272699 161.42731958 470.68261719 144.97680664 C470.68633945 143.43857979 470.68633945 143.43857979 470.69013691 141.86927766 C470.70957829 133.84851617 470.72926046 125.82775527 470.74901867 117.80699456 C470.84569166 78.53801745 470.92137505 39.2690254 471 0 C544.92 0 618.84 0 695 0 C695.0806627 82.30732092 695.0806627 82.30732092 695.09765625 116.79492188 C695.10157137 124.6874187 695.10561216 132.57991545 695.10986328 140.47241211 C695.11039078 141.46146481 695.11091828 142.4505175 695.11146176 143.46954149 C695.1201355 159.38989392 695.13588927 175.31023175 695.15430559 191.23057555 C695.17307816 207.59666496 695.1841322 223.96274678 695.18817699 240.32884651 C695.19090687 250.40917391 695.19949557 260.48946002 695.21583293 270.56977469 C695.22649088 277.50346636 695.22958094 284.43713701 695.22700275 291.37083625 C695.225735 295.35766117 695.22753112 299.34441451 695.23841095 303.33122635 C695.2962769 325.64557846 694.82207243 347.9217347 691.25 370 C691.08153564 371.06065674 690.91307129 372.12131348 690.73950195 373.21411133 C688.79119878 384.9638114 686.08978775 396.50202928 683 408 C682.61569824 409.43158447 682.61569824 409.43158447 682.22363281 410.89208984 C669.81440708 456.14606046 647.02396699 498.98299068 617 535 C616.20722656 535.96550781 615.41445312 536.93101562 614.59765625 537.92578125 C599.99386474 555.57123153 584.00790628 571.81973714 566 586 C565.06542969 586.7528125 564.13085938 587.505625 563.16796875 588.28125 C515.83659893 625.70888005 459.56307151 649.8867176 400 659 C398.97374512 659.16371094 397.94749023 659.32742188 396.89013672 659.49609375 C363.9788385 664.54412682 327.84771525 664.4182794 295 659 C293.13553223 658.69400879 293.13553223 658.69400879 291.23339844 658.38183594 C273.81183338 655.45986587 256.81632911 651.43462023 240 646 C239.17628906 645.7417041 238.35257813 645.4834082 237.50390625 645.21728516 C196.92583086 632.41743439 158.47165647 610.3851872 126 583 C124.54013672 581.81857422 124.54013672 581.81857422 123.05078125 580.61328125 C114.81016407 573.85940611 107.23239037 566.44748903 99.6875 558.9375 C99.17571198 558.43088837 98.66392395 557.92427673 98.1366272 557.40231323 C91.28536438 550.60572095 85.00335933 543.57141781 79 536 C77.9996649 534.79130638 76.99623577 533.58515949 75.98828125 532.3828125 C63.36191009 517.10458 52.60440728 500.31954347 43 483 C42.53384277 482.16339844 42.06768555 481.32679688 41.58740234 480.46484375 C9.43448996 422.23999813 -0.41646916 359.65680192 -0.23213124 294.0415597 C-0.22329721 290.07477064 -0.22643061 286.10798574 -0.22793579 282.14118958 C-0.22897236 275.30725128 -0.22282656 268.47335188 -0.21146011 261.63942337 C-0.19503811 251.75934702 -0.18998027 241.87928902 -0.18748413 231.99920051 C-0.18313284 215.96006839 -0.16989434 199.92095689 -0.15087891 183.88183594 C-0.13245301 168.32356872 -0.11835258 152.76530719 -0.10986328 137.20703125 C-0.10932729 136.23438269 -0.10879129 135.26173413 -0.10823905 134.25961137 C-0.10407895 126.65014436 -0.10016554 119.04067722 -0.09632993 111.43121004 C-0.07754447 74.28745442 -0.03728876 37.14375057 0 0 Z " fill="#FEB427" transform="translate(1056,725)"/>
<path d="M0 0 C208.56 0 417.12 0 632 0 C632 67.65 632 135.3 632 205 C564.02 205 496.04 205 426 205 C426 414.22 426 623.44 426 839 C352.08 839 278.16 839 202 839 C202 629.78 202 420.56 202 205 C135.34 205 68.68 205 0 205 C0 137.35 0 69.7 0 0 Z " fill="#1E35DD" transform="translate(415,1488)"/>
<path d="M0 0 C789.69 0 1579.38 0 2393 0 C2393 0.66 2393 1.32 2393 2 C2392.01 2.33 2391.02 2.66 2390 3 C2389.67 3.66 2389.34 4.32 2389 5 C2388.34 5 2387.68 5 2387 5 C2387 5.66 2387 6.32 2387 7 C2386.34 7 2385.68 7 2385 7 C2385 7.66 2385 8.32 2385 9 C2382.625 11.625 2382.625 11.625 2380 14 C2379.34 14 2378.68 14 2378 14 C2378 14.66 2378 15.32 2378 16 C2377.34 16 2376.68 16 2376 16 C2376 16.66 2376 17.32 2376 18 C2375.34 18 2374.68 18 2374 18 C2374 18.66 2374 19.32 2374 20 C2370.38139614 22.41240258 2368.75302657 22.24980074 2364.44651731 22.24934233 C2363.77283948 22.25200084 2363.09916164 22.25465934 2362.40506933 22.25739841 C2360.12513665 22.26391767 2357.8454738 22.25606543 2355.56554776 22.24839699 C2353.91398702 22.25012683 2352.26242699 22.25273421 2350.61086886 22.25614297 C2346.03137643 22.26301235 2341.45197003 22.25728967 2336.87248191 22.2496749 C2331.88732191 22.24357851 2326.90217283 22.24905572 2321.9170126 22.25308865 C2313.13248825 22.25857639 2304.34798978 22.25655472 2295.56346671 22.24976636 C2282.41273227 22.2396436 2269.26201644 22.24101407 2256.11127952 22.24469952 C2233.70336252 22.25064292 2211.29545579 22.2470841 2188.88754082 22.23841095 C2166.16625476 22.22964895 2143.44497402 22.22524627 2120.72368622 22.22621536 C2119.64998194 22.22625823 2119.64998194 22.22625823 2118.55458667 22.22630197 C2111.99500189 22.22656547 2105.43541711 22.22687769 2098.87583233 22.22724798 C2082.42494802 22.22817432 2065.97406374 22.2284392 2049.52317941 22.22826552 C2048.76922867 22.22825803 2048.01527793 22.22825053 2047.2384802 22.22824281 C2010.04484811 22.22781416 1972.85121804 22.21987549 1935.65758705 22.21146011 C1922.55985142 22.20850181 1909.46211579 22.20557915 1896.36438012 22.20278788 C1895.55020967 22.20261434 1894.73603921 22.20244081 1893.89719692 22.20226202 C1856.19911722 22.19427065 1818.50103767 22.19140471 1780.80295722 22.18985594 C1778.33817869 22.18975442 1775.87340016 22.18965048 1773.40862163 22.18954593 C1758.54619937 22.18891774 1743.68377711 22.188343 1728.82135485 22.18782998 C1691.8715734 22.18655221 1654.921792 22.18463324 1617.97201061 22.18227959 C1617.13078277 22.18222632 1616.28955492 22.18217305 1615.42283532 22.18211817 C1560.92819013 22.17866239 1506.43354561 22.1725666 1451.93890095 22.16426277 C1451.06869915 22.16413019 1450.19849735 22.16399762 1449.30192579 22.16386102 C1422.8117198 22.15981956 1396.32151384 22.15558282 1369.83130789 22.15130788 C1340.51648554 22.14657798 1311.20166319 22.14188139 1281.88684082 22.1373291 C1281.0053455 22.1371921 1280.12385018 22.1370551 1279.21564288 22.13691395 C1195.50895253 22.12391554 1111.80226197 22.11629258 1028.09557087 22.11006153 C1024.55048013 22.10979725 1021.00538939 22.1095314 1017.46029864 22.1092655 C984.8378514 22.10681871 952.21540416 22.10443504 919.59295692 22.10213066 C918.72550408 22.10206938 917.85805125 22.1020081 916.96431197 22.10194496 C914.3378982 22.10175944 911.71148444 22.10157393 909.08507068 22.10138843 C838.12934373 22.0963766 767.17361682 22.0908142 696.21788994 22.08489516 C693.71430139 22.08468645 691.21071285 22.08447817 688.70712431 22.08427001 C607.38682568 22.07750702 526.06652724 22.0697522 237.58325195 22.03173828 C236.87916707 22.03163836 236.17508218 22.03153844 235.4496614 22.03143549 C164.29977421 22.02133759 93.14988707 22.010892 22 22 C22.00019202 23.25433173 22.00019202 23.25433173 22.00038792 24.5340035 C22.01125108 95.55041959 22.02166002 166.56683575 22.03173828 237.58325195 C22.0318381 238.28641292 22.03193791 238.98957388 22.03204076 239.71404275 C22.04278132 315.3834252 22.05307912 391.05280772 22.08447801 691.20872229 C22.08468645 693.7143054 22.08489533 696.21988851 22.08510434 698.72547161 C22.09102588 769.72043504 22.09655958 840.71539849 22.10157386 911.71036198 C22.10175943 914.33789363 22.10194504 916.96542527 22.10213066 919.59295692 C22.10219196 920.4607845 22.10225326 921.32861207 22.10231642 922.22273745 C22.10462252 954.85467479 22.10701725 987.48661212 22.10946488 1020.11854945 C22.10973074 1023.66410046 22.10999558 1027.20965148 22.11025951 1030.75520249 C22.11649163 1114.46574905 22.12431908 1198.17629502 22.1373291 1281.88684082 C22.13746597 1282.76822227 22.13760284 1283.64960372 22.13774386 1284.5576937 C22.14229801 1313.86834512 22.14700679 1343.17899651 22.15173688 1372.4896479 C22.15601019 1398.97273224 22.160228 1425.45581658 22.16426277 1451.93890095 C22.16446162 1453.24383333 22.16446162 1453.24383333 22.16466448 1454.57512798 C22.17294939 1509.0407554 22.17883079 1563.50638268 22.18227959 1617.97201061 C22.18233315 1618.81296223 22.18238672 1619.65391385 22.18244191 1620.52034885 C22.18479234 1657.44941649 22.18664107 1694.37848414 22.1879158 1731.30755184 C22.18843092 1746.16335179 22.18902038 1761.01915173 22.18965055 1775.87495167 C22.18975442 1778.33819619 22.18985588 1780.80144071 22.18995707 1783.26468523 C22.19152318 1820.96458414 22.19475244 1858.66448198 22.20278788 1896.36438012 C22.20304797 1897.58486508 22.20304797 1897.58486508 22.20331333 1898.83000631 C22.20611303 1911.91969143 22.20905087 1925.00937652 22.21201252 1938.0990616 C22.220416 1975.24043422 22.22789633 2012.38180572 22.22826552 2049.52317941 C22.22827347 2050.27614187 22.22828142 2051.02910432 22.22828961 2051.80488382 C22.22844317 2068.22851561 22.22805089 2084.65214734 22.22712379 2101.0757791 C22.22676291 2107.62508147 22.22647687 2114.17438384 22.22621536 2120.72368622 C22.22618489 2121.43812312 22.22615442 2122.15256002 22.22612302 2122.88864652 C22.22519109 2145.58284545 22.2304335 2168.27703739 22.23921746 2190.97123449 C22.24807324 2213.91670138 22.25009402 2236.86215986 22.24366363 2259.80762847 C22.24021764 2272.87694383 22.24233451 2285.94623065 22.252434 2299.01554272 C22.25858621 2307.67390689 22.25760666 2316.33225046 22.25060215 2324.99061395 C22.24682683 2329.91260551 22.24628622 2334.8345412 22.25447049 2339.75652865 C22.26182367 2344.2129408 22.26015041 2348.66925033 22.25095253 2353.12565822 C22.24926925 2354.73275905 22.25100139 2356.33986765 22.25640678 2357.94696027 C22.26321928 2360.11360718 22.25789242 2362.27988481 22.24934233 2364.44651731 C22.24953435 2366.25044677 22.24953435 2366.25044677 22.24973025 2368.09081925 C22 2371 22 2371 20 2374 C19.34 2374 18.68 2374 18 2374 C18 2374.66 18 2375.32 18 2376 C17.34 2376 16.68 2376 16 2376 C16 2376.66 16 2377.32 16 2378 C15.34 2378 14.68 2378 14 2378 C14 2378.66 14 2379.32 14 2380 C11.625 2382.625 11.625 2382.625 9 2385 C8.34 2385 7.68 2385 7 2385 C7 2385.66 7 2386.32 7 2387 C6.34 2387 5.68 2387 5 2387 C5 2387.66 5 2388.32 5 2389 C4.01 2389.495 4.01 2389.495 3 2390 C2.67 2390.99 2.34 2391.98 2 2393 C1.34 2393 0.68 2393 0 2393 C0 1603.31 0 813.62 0 0 Z " fill="#FCB328" transform="translate(304,304)"/>
<path d="M0 0 C22.11626431 17.16015844 35.782742 39.62085518 40.7109375 67.21875 C43.68924497 93.96732279 38.10096249 121.62664904 21.25 143.125 C19.88466249 144.73739858 18.50963853 146.34164542 17.125 147.9375 C16.47144531 148.74703125 15.81789063 149.5565625 15.14453125 150.390625 C-1.51891342 170.27421001 -26.85857879 181.25646658 -52.3203125 183.65625 C-53.49335937 183.7490625 -54.66640625 183.841875 -55.875 183.9375 C-56.71804688 184.0096875 -57.56109375 184.081875 -58.4296875 184.15625 C-81.91474676 185.13140817 -107.67970211 175.79093179 -125.265625 160.36328125 C-126.12671875 159.56277344 -126.9878125 158.76226563 -127.875 157.9375 C-128.35775391 157.50099121 -128.84050781 157.06448242 -129.33789062 156.61474609 C-149.47074799 138.29746412 -160.39537592 113.53361036 -162.09765625 86.38671875 C-162.8072088 57.66526554 -152.3592414 32.5893121 -133.46875 11.21484375 C-98.59016994 -25.41898953 -40.58179858 -29.09337329 0 0 Z " fill="#1E35DD" transform="translate(1700.875,518.0625)"/>
<path d="M0 0 C2.7660619 2.2113503 5.46291408 4.47848087 8.1328125 6.8046875 C8.75800781 7.34480469 9.38320312 7.88492188 10.02734375 8.44140625 C29.38674591 26.44066306 38.54387644 52.7482111 40.31640625 78.46875 C41.11663559 106.61799376 29.14234301 132.61339221 10.1328125 152.8046875 C9.60300781 153.41054688 9.07320312 154.01640625 8.52734375 154.640625 C-7.59819013 172.29995002 -33.32764254 181.1864417 -56.54833984 182.70263672 C-84.67450432 183.94044855 -110.31466738 174.15063048 -131.1796875 155.3671875 C-145.29714837 142.18284914 -154.5454607 126.25777519 -159.8671875 107.8046875 C-160.2075 106.62777344 -160.5478125 105.45085937 -160.8984375 104.23828125 C-167.47986241 76.96802526 -161.37926754 49.1852401 -147.23828125 25.44921875 C-144.03932502 20.35232986 -140.13358757 16.02901262 -135.8671875 11.8046875 C-135.0628125 10.9590625 -134.2584375 10.1134375 -133.4296875 9.2421875 C-132.5840625 8.4378125 -131.7384375 7.6334375 -130.8671875 6.8046875 C-130.196875 6.13953125 -129.5265625 5.474375 -128.8359375 4.7890625 C-94.19611379 -28.27622377 -37.22209033 -28.49974764 0 0 Z " fill="#1E35DD" transform="translate(1229.8671875,519.1953125)"/>
<path d="M0 0 C1.32 0 2.64 0 4 0 C4 0.66 4 1.32 4 2 C3.01 2.33 2.02 2.66 1 3 C0.67 3.66 0.34 4.32 0 5 C-0.66 5 -1.32 5 -2 5 C-2 5.66 -2 6.32 -2 7 C-2.66 7 -3.32 7 -4 7 C-4 7.66 -4 8.32 -4 9 C-6.375 11.625 -6.375 11.625 -9 14 C-9.66 14 -10.32 14 -11 14 C-11 14.66 -11 15.32 -11 16 C-11.66 16 -12.32 16 -13 16 C-13 16.66 -13 17.32 -13 18 C-13.66 18 -14.32 18 -15 18 C-15 18.66 -15 19.32 -15 20 C-18.61860386 22.41240258 -20.24697343 22.24980074 -24.55348269 22.24934233 C-25.22716052 22.25200084 -25.90083836 22.25465934 -26.59493067 22.25739841 C-28.87486335 22.26391767 -31.1545262 22.25606543 -33.43445224 22.24839699 C-35.08601298 22.25012683 -36.73757301 22.25273421 -38.38913114 22.25614297 C-42.96862357 22.26301235 -47.54802997 22.25728967 -52.12751809 22.2496749 C-57.11267809 22.24357851 -62.09782717 22.24905572 -67.0829874 22.25308865 C-75.86751175 22.25857639 -84.65201022 22.25655472 -93.43653329 22.24976636 C-106.58726773 22.2396436 -119.73798356 22.24101407 -132.88872048 22.24469952 C-155.29663748 22.25064292 -177.70454421 22.2470841 -200.11245918 22.23841095 C-222.83374524 22.22964895 -245.55502598 22.22524627 -268.27631378 22.22621536 C-269.35001806 22.22625823 -269.35001806 22.22625823 -270.44541333 22.22630197 C-277.00499811 22.22656547 -283.56458289 22.22687769 -290.12416767 22.22724798 C-306.57505198 22.22817432 -323.02593626 22.2284392 -339.47682059 22.22826552 C-340.23077133 22.22825803 -340.98472207 22.22825053 -341.7615198 22.22824281 C-378.95515189 22.22781416 -416.14878196 22.21987549 -453.34241295 22.21146011 C-466.44014858 22.20850181 -479.53788421 22.20557915 -492.63561988 22.20278788 C-493.44979033 22.20261434 -494.26396079 22.20244081 -495.10280308 22.20226202 C-532.80088278 22.19427065 -570.49896233 22.19140471 -608.19704278 22.18985594 C-610.66182131 22.18975442 -613.12659984 22.18965048 -615.59137837 22.18954593 C-630.45380063 22.18891774 -645.31622289 22.188343 -660.17864515 22.18782998 C-697.1284266 22.18655221 -734.078208 22.18463324 -771.02798939 22.18227959 C-771.86921723 22.18222632 -772.71044508 22.18217305 -773.57716468 22.18211817 C-828.07180987 22.17866239 -882.56645439 22.1725666 -937.06109905 22.16426277 C-937.93130085 22.16413019 -938.80150265 22.16399762 -939.69807421 22.16386102 C-966.1882802 22.15981956 -992.67848616 22.15558282 -1019.16869211 22.15130788 C-1048.48351446 22.14657798 -1077.79833681 22.14188139 -1107.11315918 22.1373291 C-1107.9946545 22.1371921 -1108.87614982 22.1370551 -1109.78435712 22.13691395 C-1193.49104747 22.12391554 -1277.19773803 22.11629258 -1360.90442913 22.11006153 C-1364.44951987 22.10979725 -1367.99461061 22.1095314 -1371.53970136 22.1092655 C-1404.1621486 22.10681871 -1436.78459584 22.10443504 -1469.40704308 22.10213066 C-1470.27449592 22.10206938 -1471.14194875 22.1020081 -1472.03568803 22.10194496 C-1474.6621018 22.10175944 -1477.28851556 22.10157393 -1479.91492932 22.10138843 C-1550.87065627 22.0963766 -1621.82638318 22.0908142 -1692.78211006 22.08489516 C-1695.28569861 22.08468645 -1697.78928715 22.08447817 -1700.29287569 22.08427001 C-1781.61317432 22.07750702 -1862.93347276 22.0697522 -2151.41674805 22.03173828 C-2152.12083293 22.03163836 -2152.82491782 22.03153844 -2153.5503386 22.03143549 C-2224.70022579 22.02133759 -2295.85011293 22.010892 -2367 22 C-2366.99980798 23.25433173 -2366.99980798 23.25433173 -2366.99961208 24.5340035 C-2366.98874892 95.55041959 -2366.97833998 166.56683575 -2366.96826172 237.58325195 C-2366.9681619 238.28641292 -2366.96806209 238.98957388 -2366.96795924 239.71404275 C-2366.95721868 315.3834252 -2366.94692088 391.05280772 -2366.91552199 691.20872229 C-2366.91531355 693.7143054 -2366.91510467 696.21988851 -2366.91489566 698.72547161 C-2366.90897412 769.72043504 -2366.90344042 840.71539849 -2366.89842614 911.71036198 C-2366.89824057 914.33789363 -2366.89805496 916.96542527 -2366.89786934 919.59295692 C-2366.89780804 920.4607845 -2366.89774674 921.32861207 -2366.89768358 922.22273745 C-2366.89537748 954.85467479 -2366.89298275 987.48661212 -2366.89053512 1020.11854945 C-2366.89026926 1023.66410046 -2366.89000442 1027.20965148 -2366.88974049 1030.75520249 C-2366.88350837 1114.46574905 -2366.87568092 1198.17629502 -2366.8626709 1281.88684082 C-2366.86253403 1282.76822227 -2366.86239716 1283.64960372 -2366.86225614 1284.5576937 C-2366.85770199 1313.86834512 -2366.85299321 1343.17899651 -2366.84826312 1372.4896479 C-2366.84398981 1398.97273224 -2366.839772 1425.45581658 -2366.83573723 1451.93890095 C-2366.83553838 1453.24383333 -2366.83553838 1453.24383333 -2366.83533552 1454.57512798 C-2366.82705061 1509.0407554 -2366.82116921 1563.50638268 -2366.81772041 1617.97201061 C-2366.81766685 1618.81296223 -2366.81761328 1619.65391385 -2366.81755809 1620.52034885 C-2366.81520766 1657.44941649 -2366.81335893 1694.37848414 -2366.8120842 1731.30755184 C-2366.81156908 1746.16335179 -2366.81097962 1761.01915173 -2366.81034945 1775.87495167 C-2366.81024558 1778.33819619 -2366.81014412 1780.80144071 -2366.81004293 1783.26468523 C-2366.80847682 1820.96458414 -2366.80524756 1858.66448198 -2366.79721212 1896.36438012 C-2366.79695203 1897.58486508 -2366.79695203 1897.58486508 -2366.79668667 1898.83000631 C-2366.79388697 1911.91969143 -2366.79094913 1925.00937652 -2366.78798748 1938.0990616 C-2366.779584 1975.24043422 -2366.77210367 2012.38180572 -2366.77173448 2049.52317941 C-2366.77172653 2050.27614187 -2366.77171858 2051.02910432 -2366.77171039 2051.80488382 C-2366.77155683 2068.22851561 -2366.77194911 2084.65214734 -2366.77287621 2101.0757791 C-2366.77323709 2107.62508147 -2366.77352313 2114.17438384 -2366.77378464 2120.72368622 C-2366.77381511 2121.43812312 -2366.77384558 2122.15256002 -2366.77387698 2122.88864652 C-2366.77480891 2145.58284545 -2366.7695665 2168.27703739 -2366.76078254 2190.97123449 C-2366.75192676 2213.91670138 -2366.74990598 2236.86215986 -2366.75633637 2259.80762847 C-2366.75978236 2272.87694383 -2366.75766549 2285.94623065 -2366.747566 2299.01554272 C-2366.74141379 2307.67390689 -2366.74239334 2316.33225046 -2366.74939785 2324.99061395 C-2366.75317317 2329.91260551 -2366.75371378 2334.8345412 -2366.74552951 2339.75652865 C-2366.73817633 2344.2129408 -2366.73984959 2348.66925033 -2366.74904747 2353.12565822 C-2366.75073075 2354.73275905 -2366.74899861 2356.33986765 -2366.74359322 2357.94696027 C-2366.73678072 2360.11360718 -2366.74210758 2362.27988481 -2366.75065767 2364.44651731 C-2366.75046565 2366.25044677 -2366.75046565 2366.25044677 -2366.75026975 2368.09081925 C-2367 2371 -2367 2371 -2369 2374 C-2369.66 2374 -2370.32 2374 -2371 2374 C-2371 2374.66 -2371 2375.32 -2371 2376 C-2371.66 2376 -2372.32 2376 -2373 2376 C-2373 2376.66 -2373 2377.32 -2373 2378 C-2373.66 2378 -2374.32 2378 -2375 2378 C-2375 2378.66 -2375 2379.32 -2375 2380 C-2377.375 2382.625 -2377.375 2382.625 -2380 2385 C-2380.66 2385 -2381.32 2385 -2382 2385 C-2382 2385.66 -2382 2386.32 -2382 2387 C-2382.66 2387 -2383.32 2387 -2384 2387 C-2384 2387.66 -2384 2388.32 -2384 2389 C-2384.99 2389.495 -2384.99 2389.495 -2386 2390 C-2386.33 2390.99 -2386.66 2391.98 -2387 2393 C-2387.66 2393 -2388.32 2393 -2389 2393 C-2389 2389 -2389 2389 -2387.63671875 2387.46484375 C-2386.67185547 2386.70880859 -2386.67185547 2386.70880859 -2385.6875 2385.9375 C-2384.1241941 2384.62596001 -2382.56184109 2383.31328401 -2381 2382 C-2380.07077304 2381.26960965 -2379.14154608 2380.53921929 -2378.18416073 2379.7866959 C-2372.40230461 2374.77530131 -2369.34378331 2371.38768929 -2368.62693184 2363.45009333 C-2368.53181292 2360.48731876 -2368.57495754 2357.53749654 -2368.62970585 2354.57426113 C-2368.61972033 2352.91258991 -2368.60491134 2351.25094199 -2368.58575156 2349.58935123 C-2368.54701842 2345.01829848 -2368.57673649 2340.44986453 -2368.61756136 2335.87892472 C-2368.64991036 2330.88985642 -2368.61817683 2325.90112144 -2368.59468111 2320.91206035 C-2368.56218139 2312.1330286 -2368.57069015 2303.35476995 -2368.60568773 2294.57575881 C-2368.65785719 2281.43355476 -2368.64649028 2268.29192971 -2368.62258898 2255.14967115 C-2368.58369758 2232.75327364 -2368.59686686 2210.35717218 -2368.63828087 2187.96081352 C-2368.6800783 2165.25896937 -2368.69780073 2142.55729323 -2368.68600082 2119.85541153 C-2368.68563937 2119.1395948 -2368.68527791 2118.42377807 -2368.6849055 2117.68626993 C-2368.68158334 2111.12633912 -2368.67798938 2104.56640847 -2368.674072 2098.00647799 C-2368.66425831 2081.55648562 -2368.65804423 2065.1064929 -2368.65420926 2048.65649807 C-2368.6540308 2047.90267861 -2368.65385235 2047.14885914 -2368.65366848 2046.37219666 C-2368.64537183 2010.01872234 -2368.67631382 1973.66529561 -2368.71060406 1937.31184064 C-2368.76001373 1884.9149415 -2368.78806746 1832.51811326 -2368.78231496 1780.12118945 C-2368.78204518 1777.65704491 -2368.78178815 1775.19290037 -2368.78153388 1772.72875583 C-2368.77998414 1757.86991016 -2368.77810475 1743.01106453 -2368.77585523 1728.15221894 C-2368.77026907 1691.21287901 -2368.76815057 1654.2735393 -2368.7683115 1617.33419895 C-2368.76831423 1616.07277729 -2368.76831423 1616.07277729 -2368.76831701 1614.78587236 C-2368.76852579 1532.96914817 -2368.80740974 1451.1524512 -2368.8513569 1369.33574059 C-2368.86708338 1340.04186106 -2368.88265502 1310.74798145 -2368.89770508 1281.45410156 C-2368.89815841 1280.57322942 -2368.89861173 1279.69235728 -2368.8990788 1278.78479205 C-2368.94210346 1195.12512267 -2368.96136879 1111.46545387 -2368.97349005 1027.8057749 C-2368.97400583 1024.26231741 -2368.97453068 1020.71885991 -2368.97505577 1017.17540242 C-2368.98628479 941.36373351 -2368.99378221 865.55206434 -2368.99940639 789.74039483 C-2369.00028861 777.85637086 -2369.00120094 765.97234689 -2369.00213878 754.08832293 C-2369.00223783 752.83218928 -2369.00223783 752.83218928 -2369.00233888 751.55067921 C-2369.00307095 742.27488837 -2369.00381259 732.99909754 -2369.00456535 723.72330671 C-2369.00476955 721.203067 -2369.00497361 718.68282729 -2369.00517752 716.16258759 C-2369.00531328 714.48476407 -2369.0054492 712.80694056 -2369.00558527 711.12911705 C-2369.00646367 700.27619476 -2369.00727466 689.42327247 -2369.00802471 678.57035018 C-2369.01358319 598.19414169 -2369.0307689 517.8179535 -2369.06984908 437.44175393 C-2369.07063339 435.8279274 -2369.07141767 434.21410087 -2369.0722019 432.60027434 C-2369.07258954 431.80264058 -2369.07297718 431.00500683 -2369.07337656 430.18320236 C-2369.07493816 426.96890164 -2369.076498 423.75460093 -2369.07805723 420.54030022 C-2369.07883503 418.93806446 -2369.07961395 417.33582871 -2369.08039399 415.73359295 C-2369.09217558 391.52492705 -2369.1020531 367.31626116 -2369.10988247 343.10759366 C-2369.11012716 342.35518451 -2369.11037184 341.60277537 -2369.11062394 340.82756595 C-2369.11548257 325.88313824 -2369.12012392 310.93871047 -2369.12432357 295.99428256 C-2369.12657757 287.98351465 -2369.12893491 279.97274677 -2369.13138962 271.96197891 C-2369.131607 271.24810923 -2369.13182439 270.53423955 -2369.13204836 269.79873745 C-2369.13900772 247.12007225 -2369.15232091 224.44141639 -2369.16930516 201.76275664 C-2369.18646385 178.83482954 -2369.1969893 155.90690817 -2369.19927824 132.97897388 C-2369.2008151 119.91884058 -2369.20801302 106.85873857 -2369.2232912 93.79861395 C-2369.23288276 85.1477112 -2369.23537566 76.49682614 -2369.23186276 67.84591882 C-2369.23007677 62.92737846 -2369.23154496 58.00889552 -2369.2417368 53.09036415 C-2369.25090862 48.6382661 -2369.25107815 44.1862671 -2369.24370263 39.73416653 C-2369.24267994 38.127505 -2369.24508434 36.52083713 -2369.25115027 34.91418673 C-2369.25884715 32.75053691 -2369.25444145 30.5872537 -2369.24677366 28.42361217 C-2369.24771517 26.62110427 -2369.24771517 26.62110427 -2369.2486757 24.78218207 C-2369 22 -2369 22 -2367 20 C-2364.21831506 19.75054846 -2364.21831506 19.75054846 -2360.5776005 19.75133567 C-2359.90594636 19.74875024 -2359.23429221 19.74616481 -2358.54228491 19.74350103 C-2356.2632184 19.73721567 -2353.98442206 19.74533759 -2351.70536363 19.75324565 C-2350.0567993 19.75169367 -2348.40823559 19.74926365 -2346.75967369 19.74603055 C-2342.18383748 19.73964273 -2337.60808851 19.74586236 -2333.03225812 19.75395446 C-2328.05280257 19.76056804 -2323.07335685 19.75561091 -2318.09390002 19.75208595 C-2309.31783532 19.74748841 -2300.54179717 19.75038903 -2291.76573496 19.75803027 C-2278.62753244 19.76942024 -2265.48934772 19.76925197 -2252.35114142 19.76671104 C-2229.96468552 19.76270185 -2207.57824047 19.76806719 -2185.19178772 19.7784214 C-2162.49103842 19.78887932 -2139.79029416 19.79490684 -2117.08954239 19.79543686 C-2116.01691929 19.79546427 -2116.01691929 19.79546427 -2114.92262704 19.79549223 C-2107.63589875 19.79567294 -2100.34917046 19.79576324 -2093.06244216 19.79578983 C-2077.36147686 19.79584722 -2061.6605116 19.79647866 -2045.95954633 19.79735601 C-2044.82970384 19.7974176 -2044.82970384 19.7974176 -2043.67703624 19.79748044 C-2019.43417702 19.79882331 -1995.19131895 19.80268498 -1970.94846034 19.80826437 C-1969.75852841 19.80853737 -1969.75852841 19.80853737 -1968.54455745 19.80881588 C-1960.48590991 19.81066694 -1952.42726238 19.81255209 -1944.36861486 19.81444971 C-1887.9118758 19.827735 -1831.45514228 19.83461249 -1774.99840164 19.83063316 C-1774.18561086 19.83057605 -1773.37282008 19.83051894 -1772.53539927 19.8304601 C-1751.88497246 19.82899585 -1731.23454569 19.82712237 -1710.58411893 19.82509916 C-1692.17182846 19.82329837 -1673.75953797 19.82173901 -1655.34724748 19.82020217 C-1654.5131073 19.82013243 -1653.67896712 19.82006269 -1652.81954997 19.81999084 C-1642.67477891 19.81914268 -1632.53000786 19.81830201 -1622.3852368 19.81746727 C-1617.29135189 19.81704762 -1612.19746697 19.81662299 -1607.10358206 19.81619428 C-1527.87850739 19.80952696 -1448.65343283 19.80655859 -1369.42835789 19.8064082 C-1364.99956121 19.80639949 -1360.57076454 19.80638332 -1356.14196786 19.80636527 C-1273.38675792 19.8060394 -1190.63155113 19.81078601 -1107.87634277 19.82763672 C-1106.09748419 19.82799783 -1104.31862561 19.82835891 -1102.53976703 19.82871997 C-1083.00346427 19.83269115 -1063.46716153 19.83678789 -1043.93085881 19.84093621 C-1043.05325988 19.84112254 -1042.17566096 19.84130887 -1041.27146813 19.84150085 C-1033.29939455 19.84319403 -1025.32732098 19.84488865 -1017.3552474 19.84659621 C-935.59413812 19.86410573 -853.83303537 19.87731381 -772.07192421 19.86712933 C-770.81133534 19.86697412 -770.81133534 19.86697412 -769.52528003 19.86681577 C-732.61953909 19.86226978 -695.71379866 19.85607558 -658.80805835 19.84793687 C-643.9613208 19.84467399 -629.11458321 19.84170347 -614.26784557 19.8389106 C-611.8061263 19.83844597 -609.34440704 19.83797345 -606.88268777 19.83750069 C-554.50492567 19.82754185 -502.12720022 19.84088429 -449.7494444 19.86656556 C-413.4544238 19.88433273 -377.15941774 19.89857747 -340.86439252 19.8892597 C-340.11187181 19.88906829 -339.35935111 19.88887689 -338.58402674 19.88867968 C-322.16866135 19.88443838 -305.75329722 19.87832024 -289.33793321 19.87036657 C-282.79157689 19.86722665 -276.24522046 19.86435268 -269.69886398 19.86156845 C-268.98475539 19.86125804 -268.2706468 19.86094762 -267.53489855 19.8606278 C-244.86446921 19.8509022 -222.1941196 19.86279296 -199.52370311 19.88713074 C-176.59500145 19.91165906 -153.66640947 19.91223987 -130.73770181 19.88335481 C-117.68308299 19.86766842 -104.62880911 19.87138437 -91.57421761 19.90316139 C-82.91922698 19.92233879 -74.26449519 19.91643847 -65.60952534 19.88959498 C-60.69337849 19.87506762 -55.77791262 19.87169127 -50.86180533 19.89908098 C-46.4046284 19.9237134 -41.94871195 19.91637065 -37.49160146 19.88311039 C-35.88997815 19.87681478 -34.28825517 19.88229988 -32.68672726 19.90088054 C-22.73475523 20.16167267 -22.73475523 20.16167267 -14.1804289 15.62045507 C-13.08960193 14.44129851 -12.02586594 13.23608767 -11 12 C-10.03145673 11.05673951 -9.05423367 10.12226448 -8.06640625 9.19921875 C-6.82697266 7.95591797 -6.82697266 7.95591797 -5.5625 6.6875 C-4.29599609 5.42486328 -4.29599609 5.42486328 -3.00390625 4.13671875 C-0.96340293 2.1648487 -0.96340293 2.1648487 0 0 Z " fill="#C98A91" transform="translate(2693,304)"/>
</svg>
